HIERARCHY
ROOT Hips
{
	OFFSET -40.005398 108.132500 5.364305
	CHANNELS 6 Xposition Yposition Zposition Xrotation Yrotation Zrotation
	JOINT Chest
	{
		OFFSET 0.640644 13.450890 -2.194870
		CHANNELS 3 Xrotation Yrotation Zrotation
		JOINT Chest2
		{
			OFFSET -3.798546 20.375809 5.428079
			CHANNELS 3 Xrotation Yrotation Zrotation
			JOINT Chest3
			{
				OFFSET -0.940514 14.823898 1.479015
				CHANNELS 3 Xrotation Yrotation Zrotation
				JOINT Neck
				{
					OFFSET -2.291313 16.986481 2.196725
					CHANNELS 3 Xrotation Yrotation Zrotation
					JOINT Head
					{
						OFFSET -4.026264 9.332092 2.555194
						CHANNELS 3 Xrotation Yrotation Zrotation
						End Site
						{
							OFFSET -3.999729 9.360229 2.493200
						}
					}
				}
				JOINT LeftCollar
				{
					OFFSET 2.052128 13.107910 5.077004
					CHANNELS 3 Xrotation Yrotation Zrotation
					JOINT LeftUpArm
					{
						OFFSET 15.250038 7.531708 -4.382801
						CHANNELS 3 Xrotation Yrotation Zrotation
						JOINT LeftLowArm
						{
							OFFSET 26.584137 18.339478 9.832326
							CHANNELS 3 Xrotation Yrotation Zrotation
							JOINT LeftHand
							{
								OFFSET -10.599561 22.618546 16.643246
								CHANNELS 3 Xrotation Yrotation Zrotation
								End Site
								{
									OFFSET -2.316600 4.943420 3.637470
								}
							}
						}
					}
				}
				JOINT RightCollar
				{
					OFFSET -6.233475 12.134430 3.963337
					CHANNELS 3 Xrotation Yrotation Zrotation
					JOINT RightUpArm
					{
						OFFSET -15.772430 -2.760132 -7.218623
						CHANNELS 3 Xrotation Yrotation Zrotation
						JOINT RightLowArm
						{
							OFFSET -30.162483 -10.822769 10.621971
							CHANNELS 3 Xrotation Yrotation Zrotation
							JOINT RightHand
							{
								OFFSET -18.006989 7.050278 22.956406
								CHANNELS 3 Xrotation Yrotation Zrotation
								End Site
								{
									OFFSET -3.935608 1.540863 5.017361
								}
							}
						}
					}
				}
			}
		}
	}
	JOINT LeftUpLeg
	{
		OFFSET 8.726339 0.385590 4.911360
		CHANNELS 3 Xrotation Yrotation Zrotation
		JOINT LeftLowLeg
		{
			OFFSET -21.392580 -2.505150 42.190891
			CHANNELS 3 Xrotation Yrotation Zrotation
			JOINT LeftFoot
			{
				OFFSET -14.881996 -42.143711 1.732643
				CHANNELS 3 Xrotation Yrotation Zrotation
				JOINT LeftToe
				{
					OFFSET -10.337883 -2.664154 21.109005
					CHANNELS 3 Xrotation Yrotation Zrotation
					End Site
					{
						OFFSET -5.059204 12.302036 19.560753
					}
				}
			}
		}
	}
	JOINT RightUpLeg
	{
		OFFSET -8.726353 -0.385780 -4.911330
		CHANNELS 3 Xrotation Yrotation Zrotation
		JOINT RightLowLeg
		{
			OFFSET -10.448944 -45.756992 6.413150
			CHANNELS 3 Xrotation Yrotation Zrotation
			JOINT RightFoot
			{
				OFFSET 8.124676 -40.753120 -16.545460
				CHANNELS 3 Xrotation Yrotation Zrotation
				JOINT RightToe
				{
					OFFSET -12.860359 -16.190716 11.490366
					CHANNELS 3 Xrotation Yrotation Zrotation
					End Site
					{
						OFFSET -16.988148 -1.587267 16.384123
					}
				}
			}
		}
	}
}
MOTION
Frames: 14
Frame Time: 0.033333
-0.161335 106.130386 -1.111729 12.339919 29.347585 -2.531407 -28.843240 1.154085 -15.885905 4.864155 0.484501 4.594018 -0.960570 -20.283755 -6.610691 -2.013925 20.432096 -8.387057 -0.000000 0.000003 0.000002 9.116297 9.148463 -19.782842 -3.057718 0.013529 -7.540341 15.651052 34.312586 -68.807531 -0.000002 -0.000003 -0.000000 6.891027 -12.566900 -3.543204 1.269210 -12.623947 -8.242714 32.907626 -24.089089 30.149831 -0.000001 -0.000004 0.000001 62.099219 26.229969 28.476969 -48.877558 38.138748 -20.537196 3.650507 -34.368002 10.137152 -0.000001 -0.000002 -0.000000 2.674848 3.548596 3.468520 -24.843181 4.136014 -16.458283 7.985494 13.073129 6.447089 -0.000000 -0.000004 -0.000001 
-0.896389 106.087776 -1.112976 19.232850 28.098416 -2.905243 -26.136723 1.438440 -10.091164 -1.613407 -0.154013 1.074456 9.933487 -17.046272 -4.543550 -9.908778 12.745733 -8.349010 0.000003 0.000001 -0.000001 13.838272 3.403261 -40.700530 21.610877 -9.320556 -60.909667 38.017051 27.212785 -64.289811 -0.000005 -0.000004 -0.000003 6.784470 -10.958011 20.143742 19.901991 6.463140 45.762821 30.249412 -1.503421 23.578346 0.000000 0.000000 0.000002 62.410963 23.983837 25.249623 -45.844356 36.073467 -18.625103 2.087136 -30.661136 4.446257 0.000001 -0.000002 -0.000000 -2.417012 2.248231 6.693286 -20.360854 -0.944818 -14.742224 4.787467 8.870163 10.269023 -0.000000 -0.000002 0.000000 
-0.899967 106.088684 -1.115865 19.122322 28.012419 -2.842685 -26.177356 1.456420 -10.100268 -0.941606 -0.174212 1.417676 9.379757 -16.917556 -4.814503 -10.038542 12.573351 -8.367357 -0.000001 -0.000001 0.000002 13.827289 3.050501 -40.814581 21.457260 -9.222738 -60.675439 38.146108 26.889927 -64.409237 -0.000003 -0.000003 -0.000002 6.682781 -10.891824 20.202038 19.878159 6.212547 45.676545 30.117774 -1.327720 23.661918 0.000000 -0.000006 0.000001 62.323762 23.916254 25.219225 -45.609661 36.023702 -18.543019 1.733698 -30.674380 4.191454 -0.000001 -0.000001 -0.000000 -2.533201 2.229572 6.592151 -20.015465 -1.055312 -14.528582 4.596136 9.037866 10.234006 -0.000001 -0.000002 -0.000001 
-0.913349 106.093117 -1.119980 18.985038 28.243432 -2.917577 -26.013341 1.406833 -9.993126 -1.208835 -0.191297 1.322990 9.696908 -17.090259 -4.743865 -9.944190 12.499720 -8.251221 -0.000000 0.000003 -0.000000 13.981374 2.936328 -40.739223 21.583237 -9.426856 -60.533870 38.267774 26.704937 -64.232322 -0.000001 -0.000004 -0.000000 6.771977 -10.688740 20.320889 19.748368 6.610516 45.302644 30.224871 -1.426771 23.828023 0.000000 -0.000000 0.000000 62.295034 23.944236 25.254758 -45.643374 35.890158 -18.303635 1.524151 -30.614728 4.034165 -0.000001 -0.000001 0.000002 -2.120058 2.244681 6.865388 -20.458322 -0.963332 -14.727826 4.631434 9.109154 10.285229 -0.000001 -0.000001 -0.000001 
-0.931122 106.105339 -1.126949 19.224505 28.213172 -2.992881 -26.288797 1.437704 -10.052609 -1.230890 -0.208813 1.374696 9.804285 -17.247672 -4.702773 -9.469075 12.680157 -8.225746 0.000002 -0.000000 -0.000000 13.784261 3.695798 -40.701620 21.671096 -9.654374 -60.542093 38.692342 26.675668 -64.803715 -0.000005 0.000003 -0.000001 6.789952 -10.872488 20.224675 19.793811 6.651910 45.263991 30.366809 -1.361793 24.138266 -0.000002 -0.000002 -0.000000 61.712822 23.727807 25.269649 -45.563796 35.774612 -18.132489 1.455724 -30.325893 3.959885 0.000003 0.000000 0.000001 -2.473735 2.322436 6.736782 -20.177475 -0.964625 -14.523631 4.180100 9.323386 10.074780 -0.000001 -0.000001 -0.000000 
-0.952278 106.119278 -1.130534 18.881969 27.837008 -2.936800 -25.823700 1.351965 -9.875839 -1.137262 -0.230940 1.422525 9.525375 -17.018342 -4.706023 -9.313813 12.633376 -8.214258 -0.000001 0.000001 -0.000001 13.877813 3.614003 -40.719641 21.672735 -9.852033 -60.359447 38.892651 26.559959 -64.963944 -0.000004 0.000000 0.000001 6.822594 -10.396280 20.308137 19.687235 6.834174 45.079214 30.159028 -1.016784 23.845393 0.000001 -0.000002 -0.000001 61.625266 23.790553 25.258810 -45.308862 35.421658 -17.750345 1.370261 -29.991767 3.865189 0.000003 -0.000001 -0.000000 -2.420624 2.326412 6.878932 -19.934211 -0.961827 -14.418323 3.967042 9.680296 10.052793 -0.000000 -0.000004 -0.000001 
-0.974876 106.132721 -1.132420 19.109262 28.008024 -3.125858 -25.945182 1.340525 -9.784656 -1.146777 -0.361736 1.531901 9.411074 -16.995799 -4.883227 -9.192987 12.407799 -8.198538 -0.000000 0.000002 -0.000001 13.894936 3.131574 -40.513721 21.569297 -10.235140 -60.429586 38.905608 26.533649 -65.266528 -0.000005 0.000001 0.000003 6.727824 -10.250104 20.435887 19.518135 6.825695 44.871508 30.154322 -0.952003 23.932718 -0.000003 0.000002 -0.000004 61.373908 23.797247 25.247772 -45.331795 35.632872 -17.784419 1.649068 -30.186660 4.126652 0.000003 0.000000 0.000003 -2.546190 2.340218 6.907866 -20.308003 -1.052061 -14.549841 3.994070 9.689145 9.965733 0.000000 -0.000002 0.000000 
-1.002720 106.150688 -1.132621 19.130865 27.630308 -3.047990 -25.824862 1.358462 -9.815370 -1.222059 -0.323701 1.417092 9.478090 -16.614399 -4.610822 -9.199069 12.279385 -8.256392 -0.000001 0.000004 0.000003 13.711990 3.271409 -40.217814 21.447364 -10.469043 -60.735879 39.182818 26.306608 -65.768861 -0.000000 -0.000005 -0.000002 6.631938 -10.236180 20.046607 19.464183 6.664753 45.091355 30.138439 -0.395936 24.199386 -0.000001 -0.000004 0.000001 61.570508 24.099527 25.334372 -45.423101 35.693742 -18.146542 1.789317 -29.910908 4.199547 -0.000001 -0.000002 0.000002 -2.373727 2.332015 7.033699 -20.366034 -1.018716 -14.605811 4.004604 10.083890 10.401500 -0.000000 -0.000001 0.000002 
-1.028904 106.168945 -1.133650 19.362866 27.616818 -3.181697 -25.889048 1.335516 -9.707715 -1.990506 -0.347960 1.052874 10.248230 -16.544007 -4.255093 -8.936539 12.306978 -8.301760 -0.000000 0.000003 0.000002 13.634721 3.165880 -40.115388 21.294971 -10.537947 -60.969704 39.222641 26.288570 -66.396890 -0.000002 -0.000002 -0.000000 6.521401 -10.697381 19.901161 19.133614 6.770327 44.950902 30.425761 -0.304198 25.012896 0.000001 -0.000004 0.000002 61.442203 24.187629 25.372911 -45.471657 35.744852 -18.090009 2.190735 -30.063395 4.518728 0.000007 -0.000004 -0.000001 -2.477990 2.365252 7.103121 -20.447158 -1.033748 -14.602212 3.928988 10.234882 10.441586 -0.000000 -0.000008 0.000000 
-1.052860 106.188133 -1.137160 19.812005 27.666979 -3.380714 -26.128675 1.348174 -9.681129 -1.759326 -0.418915 1.255348 9.967349 -16.597857 -4.429668 -9.123634 12.100259 -8.188879 -0.000001 0.000003 -0.000000 13.625918 3.005374 -39.829343 21.229893 -10.892934 -61.265711 39.378598 26.305522 -67.231635 -0.000003 -0.000001 -0.000001 6.462449 -10.584421 19.648241 18.739860 7.203713 44.978715 30.479931 -0.087006 25.470172 -0.000003 -0.000005 0.000002 61.081555 24.287705 25.440781 -45.526479 35.642236 -18.139511 2.010094 -30.226459 4.401343 0.000002 -0.000003 0.000000 -2.676944 2.431581 7.121512 -20.815111 -0.901468 -14.749592 4.113951 10.231342 10.679294 -0.000001 -0.000006 -0.000001 
-1.076912 106.216576 -1.140635 19.868155 27.463905 -3.520724 -25.907713 1.274178 -9.474623 -2.212065 -0.520259 1.120232 10.276690 -16.691618 -4.357303 -8.996421 11.996655 -8.165665 -0.000000 0.000001 -0.000001 13.449123 3.046792 -39.494613 21.141343 -10.776858 -61.768413 39.938042 25.683524 -67.375015 -0.000005 0.000000 -0.000001 6.379766 -10.045070 19.214695 18.584984 7.259710 45.147755 30.812223 0.782538 26.004320 -0.000003 -0.000002 0.000001 60.601407 24.352099 25.459981 -45.165237 35.405454 -18.012898 1.846119 -30.188408 4.278972 -0.000001 0.000001 0.000002 -2.800177 2.461421 7.201384 -20.884236 -0.934735 -14.777464 4.024064 10.390197 10.740904 0.000000 -0.000003 0.000001 
-1.098778 106.240082 -1.139086 20.065402 27.515803 -3.625272 -26.066780 1.302454 -9.552394 -1.819647 -0.508168 1.329623 9.823660 -16.770679 -4.494775 -8.962942 11.824248 -7.988646 0.000001 0.000003 -0.000000 13.538711 2.800440 -39.012610 21.153571 -11.327512 -62.085060 40.315021 25.400341 -67.794374 -0.000006 -0.000002 -0.000000 6.394813 -10.044472 18.798477 18.339773 7.660310 45.184444 31.050586 1.588128 26.599543 -0.000002 -0.000004 0.000000 60.345445 24.336370 25.465568 -45.159298 35.308625 -17.882197 2.030576 -30.189696 4.460463 -0.000001 -0.000001 0.000001 -2.925365 2.476891 7.218671 -20.990141 -0.946297 -14.824046 3.982287 10.516345 10.743567 -0.000001 -0.000003 0.000001 
-1.118176 106.256638 -1.125527 20.202982 27.648828 -3.844127 -25.826229 1.235283 -9.436010 -1.409420 -0.586101 1.641865 9.311955 -16.681159 -4.743745 -9.296130 11.345480 -7.747592 -0.000001 0.000003 -0.000000 13.625382 2.165621 -38.298226 21.124810 -12.534271 -62.195983 41.386223 24.366109 -68.076263 -0.000003 -0.000001 -0.000001 6.397234 -10.092637 18.328512 17.901321 8.039277 45.188924 31.604364 3.215756 27.421085 -0.000001 0.000001 -0.000001 60.247446 24.564094 25.521468 -45.155654 35.409739 -17.971841 1.946994 -30.367636 4.375687 0.000003 0.000001 0.000003 -2.849635 2.461373 7.461656 -21.038550 -0.953359 -14.886368 3.781527 10.636497 10.840148 0.000000 0.000001 -0.000001 
-1.132999 106.274033 -1.114574 20.480192 27.539111 -3.813511 -25.818962 1.286842 -9.631544 -1.106550 -0.632945 1.875853 8.962415 -16.680077 -4.863715 -9.601086 11.183063 -7.560628 -0.000002 0.000005 -0.000001 13.604167 2.288971 -37.880950 21.340716 -13.835804 -61.940103 43.296825 22.889644 -68.495569 -0.000003 -0.000003 -0.000000 6.486727 -9.454980 17.987932 17.549150 8.797622 44.898269 31.897011 5.594220 27.565923 -0.000001 -0.000008 -0.000000 59.706932 24.407406 25.513939 -44.887962 35.178859 -17.968366 1.693114 -30.103584 4.194821 -0.000002 0.000001 0.000001 -3.386247 2.507016 7.164272 -20.589064 -0.999075 -14.694098 3.590027 10.548071 10.753890 0.000001 -0.000006 -0.000001 
